<svg xmlns="http://www.w3.org/2000/svg" viewBox="0 0 93.7 93.2"><path d="M46.9 90.8C22.5 90.8 2.7 71 2.7 46.6S22.5 2.4 46.9 2.4 91 22.2 91 46.6 71.2 90.8 46.9 90.8zm0-79.6c-19.5 0-35.4 15.9-35.4 35.4S27.4 82 46.9 82s35.4-15.9 35.4-35.4c-.1-19.5-16-35.4-35.4-35.4z"/><path d="M37.2 41.7c-.1-1.1-.5-2.1-1.1-3-.9-1.2-2.2-1.8-4.1-1.8-2.6 0-4.4 1.3-5.4 3.9-.5 1.4-.8 3.2-.8 5.5 0 2.2.3 3.9.8 5.3.9 2.5 2.7 3.7 5.3 3.7 1.8 0 3.1-.5 3.9-1.5s1.2-2.3 1.4-3.8h8c-.2 2.4-1 4.6-2.6 6.7-2.4 3.4-6.1 5.1-10.9 5.1-4.8 0-8.3-1.4-10.6-4.3s-3.4-6.5-3.4-11.1c0-5.1 1.2-9.1 3.7-11.9s5.9-4.3 10.3-4.3c3.7 0 6.8.8 9.2 2.5 2.4 1.7 3.8 4.6 4.2 8.9h-7.9zM68.4 41.7c-.1-1.1-.5-2.1-1.1-3-.9-1.2-2.2-1.8-4.1-1.8-2.6 0-4.4 1.3-5.4 3.9-.6 1.4-.8 3.2-.8 5.5 0 2.2.3 3.9.8 5.3.9 2.5 2.7 3.7 5.3 3.7 1.8 0 3.1-.5 3.9-1.5.8-1 1.2-2.3 1.4-3.8h8c-.2 2.4-1 4.6-2.6 6.7-2.4 3.4-6.1 5.1-10.9 5.1s-8.3-1.4-10.6-4.3-3.4-6.5-3.4-11.1c0-5.1 1.2-9.1 3.7-11.9s5.9-4.3 10.3-4.3c3.7 0 6.8.8 9.2 2.5 2.4 1.7 3.8 4.6 4.2 8.9h-7.9z"/></svg>