<?xml version="1.0" encoding="utf-8"?>
<!-- Generator: Adobe Illustrator 21.0.0, SVG Export Plug-In . SVG Version: 6.00 Build 0)  -->
<svg version="1.1" id="Layer_1" xmlns="http://www.w3.org/2000/svg" xmlns:xlink="http://www.w3.org/1999/xlink" x="0px" y="0px"
	 viewBox="0 0 93.7 93.2" style="enable-background:new 0 0 93.7 93.2;" xml:space="preserve">
<path d="M54.8,46.6l36-36c2.2-2.2,2.2-5.7,0-7.9s-5.7-2.2-7.9,0l-36,36l-36-36C8.7,0.5,5.2,0.5,3,2.7s-2.2,5.7,0,7.9l36,36l-36,36
	c-2.2,2.2-2.2,5.7,0,7.9c1.1,1.1,2.5,1.6,4,1.6s2.9-0.5,4-1.6l36-36l36,36c1.1,1.1,2.5,1.6,4,1.6s2.9-0.5,4-1.6
	c2.2-2.2,2.2-5.7,0-7.9L54.8,46.6z"/>
</svg>
