<?xml version="1.0" encoding="utf-8"?>
<!-- Generator: Adobe Illustrator 21.0.0, SVG Export Plug-In . SVG Version: 6.00 Build 0)  -->
<svg version="1.1" id="Layer_1" xmlns="http://www.w3.org/2000/svg" xmlns:xlink="http://www.w3.org/1999/xlink" x="0px" y="0px"
	 viewBox="0 0 742.9 173.8" style="enable-background:new 0 0 742.9 173.8;" xml:space="preserve">
<path d="M114,0h21.9v20.7H114V0z M114,37.8h21.9v99.3H114V37.8z M178.6,59.2c2.7-2.6,5.6-4.4,8.8-5.4s6.2-1.4,9-1.4
	c6.1,0,11.2,1.6,15.3,4.7c4,3.1,6.5,7.8,7.4,13.9H241c-0.5-6.1-2-11.5-4.6-15.9c-2.6-4.5-5.9-8.2-9.9-11.1s-8.6-5.2-13.8-6.6
	c-5.2-1.5-10.7-2.2-16.4-2.2c-8.2,0-15.3,1.4-21.4,4.1c-6.1,2.8-11.2,6.5-15.3,11.3s-7.2,10.5-9.2,17s-3.1,13.5-3.1,20.9
	c0,7.3,1.1,14.1,3.2,20.4c2.1,6.3,5.2,11.7,9.3,16.2c4.1,4.5,9.1,8.1,15.1,10.8s12.8,3.9,20.6,3.9c12.8,0,23.1-3.4,30.8-10.3
	c7.7-6.8,12.6-16.7,14.7-29.7h-21.9c-1,7.2-3.6,12.7-7.8,16.7s-9.4,6-15.8,6c-4.7,0-8.8-1-12.1-3s-6-4.6-8.2-7.8
	c-2.1-3.2-3.6-6.8-4.6-10.9s-1.4-8.2-1.4-12.3c0-7.6,0.9-13.7,2.7-18.3C173.6,65.5,175.9,61.9,178.6,59.2z M279.5,8.1h-21.9v29.8
	h-16.5v16.3h16.5v58.6c0.1,4.1,0.5,7.7,1.2,10.9s2,5.9,4,8s4.7,3.7,8.3,4.8c3.5,1.1,8.2,1.6,13.9,1.6c2.4,0,4.8-0.1,7.1-0.4
	c2.3-0.3,4.7-0.5,7.1-0.8V120c-1.5,0.4-3.1,0.6-4.6,0.7s-3.1,0.1-4.6,0.1c-2.4,0-4.4-0.3-5.8-0.9s-2.5-1.4-3.2-2.6s-1.2-2.6-1.3-4.2
	c-0.2-1.7-0.3-3.6-0.3-6v-53h19.8V37.8h-19.8L279.5,8.1L279.5,8.1L279.5,8.1z M444.5,67.4c-1.7-6.4-4.6-12-8.4-16.8
	s-8.6-8.6-14.4-11.3c-5.8-2.8-12.5-4.1-20.2-4.1c-6.3,0-12.2,1.2-17.7,3.7c-3.7,1.7-6.9,4.2-9.4,7.4c-2.6-3.2-5.7-5.7-9.4-7.4
	c-5.4-2.5-11.3-3.7-17.7-3.7c-7.7,0-14.5,1.4-20.2,4.1c-5.8,2.8-10.6,6.5-14.4,11.3S306,61,304.1,67.4s-2.9,13.2-2.9,20.5
	c0,6.7,0.9,13.1,2.6,19.4s4.3,11.8,7.8,16.6s7.9,8.6,13.2,11.5c5.3,2.9,11.6,4.3,18.8,4.3c3.2,0,6.3-0.3,9.5-0.9
	c3.2-0.6,6.2-1.5,9.1-2.8s5.6-2.9,8.1-4.9c1.5-1.2,2.8-2.6,4-4c1.2,1.5,2.5,2.8,4,4c2.5,2,5.2,3.6,8.1,4.9c2.9,1.3,6,2.2,9.1,2.8
	c3.2,0.6,6.3,0.9,9.5,0.9c7.2,0,13.5-1.4,18.8-4.3c5.3-2.9,9.7-6.7,13.2-11.5s6.1-10.3,7.8-16.6s2.6-12.7,2.6-19.4
	C447.4,80.6,446.4,73.8,444.5,67.4z M424.4,100.3c-1,4.2-2.5,7.9-4.8,11.1c-2.2,3.3-5,5.9-8.5,8c-3.4,2-7.6,3.1-12.5,3.1
	c-4.4,0-8.3-0.9-11.7-2.7c-3.4-1.8-6.2-4.2-8.6-7.3c-1.6-2-2.9-4.3-3.9-6.8c-1.1,2.5-2.4,4.8-3.9,6.8c-2.4,3.1-5.3,5.5-8.6,7.3
	c-3.4,1.8-7.3,2.7-11.7,2.7c-4.9,0-9.1-1-12.5-3.1c-3.4-2-6.2-4.7-8.5-8c-2.2-3.3-3.8-7-4.8-11.1c-1-4.2-1.4-8.4-1.4-12.8
	c0-4.5,0.6-8.8,1.7-13.1c1.1-4.3,2.9-8,5.1-11.2c2.3-3.3,5.1-5.9,8.6-7.9c3.4-2,7.4-3,11.8-3c9.1,0,16,3.2,20.6,9.6
	c1.5,2,2.7,4.3,3.6,6.7c1-2.4,2.2-4.7,3.6-6.7c4.6-6.4,11.5-9.6,20.6-9.6c4.4,0,8.4,1,11.8,3s6.3,4.6,8.6,7.9c2.3,3.3,4,7,5.1,11.2
	s1.7,8.6,1.7,13.1C425.9,91.9,425.4,96.2,424.4,100.3L424.4,100.3z M549.3,67.5c-1.9-6.5-4.7-12.1-8.6-16.9
	c-3.8-4.8-8.7-8.6-14.5-11.3c-5.8-2.8-12.6-4.1-20.4-4.1c-6.4,0-12.4,1.2-17.9,3.7s-9.8,6.6-12.9,12.4h-0.4V37.8h-20.7v135.9h21.9
	v-49.5h0.4c1.7,2.7,3.7,5,6.2,7s5.2,3.6,8.2,4.9c2.9,1.3,6,2.2,9.2,2.8s6.4,0.9,9.6,0.9c7.3,0,13.6-1.4,19-4.3s9.8-6.7,13.3-11.5
	s6.1-10.3,7.9-16.6c1.7-6.3,2.6-12.7,2.6-19.4C552.2,80.7,551.2,73.9,549.3,67.5L549.3,67.5z M528.9,100.3c-1,4.2-2.6,7.9-4.8,11.1
	c-2.2,3.3-5.1,5.9-8.5,8c-3.5,2-7.7,3.1-12.7,3.1c-4.5,0-8.4-0.9-11.8-2.7c-3.4-1.8-6.3-4.2-8.7-7.3c-2.4-3.1-4.3-6.8-5.5-11
	c-1.2-4.3-1.8-8.9-1.8-13.9c0-10.6,2.3-19.1,7-25.5s11.6-9.6,20.8-9.6c4.5,0,8.4,1,11.9,3c3.5,2,6.3,4.6,8.6,7.9s4,7,5.2,11.2
	s1.7,8.6,1.7,13.1C530.4,91.9,529.9,96.2,528.9,100.3z M587.6,8.1h-21.9v29.8h-16.5v16.3h16.5v58.6c0.1,4.1,0.5,7.7,1.2,10.9
	s2,5.9,4,8s4.7,3.7,8.3,4.8c3.5,1.1,8.2,1.6,13.9,1.6c2.4,0,4.8-0.1,7.1-0.4s4.7-0.5,7.1-0.8V120c-1.5,0.4-3.1,0.6-4.6,0.7
	s-3.1,0.1-4.6,0.1c-2.4,0-4.4-0.3-5.8-0.9c-1.4-0.6-2.5-1.4-3.2-2.6s-1.2-2.6-1.3-4.2c-0.2-1.7-0.3-3.6-0.3-6v-53h19.8V37.8h-19.8
	C587.5,37.8,587.6,8.1,587.6,8.1z M713.2,116.5c-4.2,4-9.4,6-15.8,6c-4.7,0-8.8-1-12.1-3s-6-4.6-8.2-7.8c-2.1-3.2-3.6-6.8-4.6-10.9
	s-1.4-8.2-1.4-12.3c0-7.6,0.9-13.7,2.7-18.3c1.8-4.7,4-8.3,6.7-10.9c2.7-2.6,5.6-4.4,8.8-5.4s6.2-1.4,9-1.4c6.1,0,11.2,1.6,15.3,4.7
	c4,3.1,6.5,7.8,7.4,13.9h21.9c-0.5-6.1-2-11.5-4.6-15.9c-2.6-4.5-5.9-8.2-9.9-11.1s-8.6-5.2-13.8-6.6c-5.2-1.5-10.7-2.2-16.4-2.2
	c-8.2,0-15.3,1.4-21.4,4.1c-6.1,2.8-11.2,6.5-15.3,11.3s-7.2,10.5-9.2,17s-3.1,13.5-3.1,20.9c0,7.3,1.1,14.1,3.2,20.4
	c2.1,6.3,5.2,11.7,9.3,16.2c4.1,4.5,9.1,8.1,15.1,10.8s12.8,3.9,20.6,3.9c12.8,0,23.1-3.4,30.8-10.3c7.7-6.8,12.6-16.7,14.7-29.7
	H721C720,107,717.4,112.6,713.2,116.5z M105.3,28.7c-1.2-5.1-3.5-9.7-6.8-13.9S90.4,7,84.3,4.2C78.1,1.4,70.2,0,60.5,0H0v137.1h24
	V84.5h36.5c9.7,0,17.7-1.4,23.8-4.1c6.1-2.8,10.9-6.2,14.2-10.5c3.3-4.2,5.6-8.8,6.8-13.7c1.2-4.9,1.8-9.5,1.8-13.7
	S106.5,33.7,105.3,28.7z M80.9,53.1c-1.5,2.9-3.4,5.2-5.8,6.9s-5,3-7.8,3.7c-2.8,0.8-5.6,1.2-8.3,1.2H24V19.6h35.5
	c3.2,0,6.2,0.3,9,1c2.8,0.6,5.3,1.8,7.5,3.6c2.2,1.7,3.9,4.1,5.2,7c1.3,2.9,1.9,6.7,1.9,11.1C83.1,46.6,82.4,50.2,80.9,53.1z
	 M619.8,0h21.9v20.7h-21.9V0z M619.8,37.8h21.9v99.3h-21.9V37.8z"/>
</svg>
