<svg xmlns="http://www.w3.org/2000/svg" viewBox="0 0 1780.6 171"><path d="M323.9 24.9L299.2 0l-43.9 43.5L211.5 0l-24.8 24.9 43.7 43.3-43.7 43.3 24.8 24.9 43.8-43.5 43.9 43.5 24.7-24.9-43.6-43.3z"/><circle cx="68.2" cy="68.2" r="68.2"/><path d="M381.3 0h136.4v136.4H381.3zM683.9 0l56.9 91.5h.4V0h28.1v136.4h-30l-56.7-91.3h-.4v91.3h-28.1V0h29.8zm104.7 65.6c2.4-6.4 5.9-11.9 10.3-16.4 4.5-4.5 9.8-8 16-10.5 6.2-2.5 13.2-3.7 21-3.7 7.8 0 14.8 1.2 21.1 3.7s11.7 6 16.1 10.5c4.5 4.5 7.9 10 10.3 16.4s3.6 13.6 3.6 21.5-1.2 15-3.6 21.4-5.9 11.8-10.3 16.3c-4.5 4.5-9.8 8-16.1 10.4-6.3 2.4-13.3 3.6-21.1 3.6-7.8 0-14.8-1.2-21-3.6-6.2-2.4-11.6-5.9-16-10.4-4.5-4.5-7.9-10-10.3-16.3-2.4-6.4-3.6-13.5-3.6-21.4 0-7.9 1.2-15 3.6-21.5zm24.7 33.1c.8 3.8 2.1 7.1 3.9 10.1 1.8 3 4.3 5.4 7.4 7.2s6.9 2.7 11.5 2.7 8.4-.9 11.6-2.7c3.1-1.8 5.6-4.2 7.5-7.2 1.8-3 3.2-6.4 3.9-10.1.8-3.8 1.1-7.6 1.1-11.6 0-3.9-.4-7.8-1.1-11.7-.8-3.8-2.1-7.2-3.9-10.1-1.8-2.9-4.3-5.3-7.5-7.2-3.1-1.8-7-2.8-11.6-2.8s-8.4.9-11.5 2.8c-3.1 1.8-5.5 4.2-7.4 7.2-1.8 2.9-3.2 6.3-3.9 10.1-.8 3.8-1.1 7.7-1.1 11.7-.1 4 .3 7.8 1.1 11.6zm153.6 37.7v-13.8h-.6c-3.4 5.7-7.9 9.9-13.4 12.4s-11.1 3.8-16.8 3.8c-7.3 0-13.2-1-17.9-2.9-4.7-1.9-8.3-4.6-11-8.1s-4.6-7.8-5.6-12.8c-1.1-5-1.6-10.6-1.6-16.7V37.6h27.1v55.8c0 8.2 1.3 14.2 3.8 18.2s7.1 6 13.6 6c7.4 0 12.7-2.2 16-6.6s5-11.6 5-21.7V37.6h27.1v98.8h-25.7zm68.4-98.8v13.8h.6c3.4-5.7 7.9-9.9 13.4-12.5s11.1-3.9 16.8-3.9c7.3 0 13.2 1 17.9 3 4.6 2 8.3 4.7 11 8.2s4.6 7.8 5.6 12.8c1.1 5 1.6 10.6 1.6 16.7v60.8H1075V80.6c0-8.1-1.3-14.2-3.8-18.2s-7.1-6-13.6-6c-7.4 0-12.7 2.2-16 6.6-3.3 4.4-5 11.6-5 21.7v51.8h-27.1V37.6h25.8zM1229.1 0c8.5 0 15.8 1.2 21.8 3.7s10.9 5.8 14.6 9.8c3.8 4.1 6.5 8.7 8.2 13.9 1.7 5.2 2.6 10.6 2.6 16.2 0 5.5-.9 10.9-2.6 16.1-1.7 5.3-4.5 10-8.2 14-3.8 4.1-8.6 7.4-14.6 9.8-6 2.5-13.2 3.7-21.8 3.7h-31.5v48.9h-30V0h61.5zm-8.2 64.2c3.4 0 6.7-.3 9.9-.8s6-1.5 8.4-3c2.4-1.5 4.4-3.5 5.8-6.2 1.5-2.7 2.2-6.2 2.2-10.5s-.7-7.8-2.2-10.5c-1.5-2.7-3.4-4.7-5.8-6.2s-5.2-2.5-8.4-3-6.5-.8-9.9-.8h-23.3v40.9h23.3v.1zm92.3-26.6V56h.4c1.3-3.1 3-5.9 5.2-8.5s4.6-4.8 7.5-6.7c2.8-1.8 5.8-3.3 9-4.3s6.5-1.5 9.9-1.5c1.8 0 3.8.3 5.9 1v25.2c-1.3-.3-2.8-.5-4.6-.7s-3.5-.3-5.2-.3c-5 0-9.2.8-12.6 2.5-3.4 1.7-6.2 3.9-8.3 6.8-2.1 2.9-3.6 6.2-4.5 10-.9 3.8-1.3 8-1.3 12.4v44.5h-27.1V37.6h25.7zm40.8 28c2.4-6.4 5.9-11.9 10.3-16.4 4.5-4.5 9.8-8 16-10.5s13.2-3.7 21-3.7 14.8 1.2 21.1 3.7c6.3 2.5 11.7 6 16.1 10.5 4.5 4.5 7.9 10 10.3 16.4 2.4 6.4 3.6 13.6 3.6 21.5s-1.2 15-3.6 21.4c-2.4 6.4-5.9 11.8-10.3 16.3-4.5 4.5-9.8 8-16.1 10.4-6.3 2.4-13.3 3.6-21.1 3.6s-14.8-1.2-21-3.6c-6.2-2.4-11.6-5.9-16-10.4-4.5-4.5-7.9-10-10.3-16.3-2.4-6.4-3.6-13.5-3.6-21.4 0-7.9 1.2-15 3.6-21.5zm24.7 33.1c.8 3.8 2.1 7.1 3.9 10.1 1.8 3 4.3 5.4 7.4 7.2s6.9 2.7 11.5 2.7 8.4-.9 11.6-2.7c3.1-1.8 5.6-4.2 7.5-7.2 1.8-3 3.2-6.4 3.9-10.1.8-3.8 1.1-7.6 1.1-11.6 0-3.9-.4-7.8-1.1-11.7-.8-3.8-2.1-7.2-3.9-10.1-1.8-2.9-4.3-5.3-7.5-7.2-3.1-1.8-7-2.8-11.6-2.8s-8.4.9-11.5 2.8c-3.1 1.8-5.5 4.2-7.4 7.2-1.8 2.9-3.2 6.3-3.9 10.1-.8 3.8-1.1 7.7-1.1 11.7-.1 4 .3 7.8 1.1 11.6zm75.8 49.9c2.8 0 5.3-.5 7.4-1.6 2.1-1.1 3.2-3.5 3.2-7.2V37.6h27.1v103.5c0 5.1-.5 9.5-1.6 13.2-1.1 3.7-2.9 6.8-5.5 9.3-2.6 2.5-6.1 4.3-10.6 5.5-4.5 1.2-10.1 1.8-17 1.8-3.2 0-6-.3-8.6-.8v-22.4c1.3.7 3.2.9 5.6.9zM1465 22.4V0h27.1v22.4H1465zm74.9 90.3c4.1 3.9 9.9 5.9 17.6 5.9 5.5 0 10.2-1.4 14.1-4.1 3.9-2.7 6.4-5.6 7.3-8.7h23.9c-3.8 11.8-9.7 20.3-17.6 25.4-7.9 5.1-17.5 7.6-28.7 7.6-7.8 0-14.8-1.2-21-3.7s-11.5-6-15.9-10.6c-4.3-4.6-7.7-10.1-10-16.4-2.4-6.4-3.5-13.4-3.5-21 0-7.4 1.2-14.3 3.6-20.6 2.4-6.4 5.9-11.9 10.3-16.5 4.5-4.6 9.8-8.3 16-11s13-4 20.5-4c8.4 0 15.7 1.6 22 4.9 6.2 3.2 11.4 7.6 15.4 13.1s6.9 11.7 8.7 18.7c1.8 7 2.4 14.3 1.9 22h-71.3c.4 8.7 2.6 15.1 6.7 19zm30.7-51.9c-3.2-3.6-8.2-5.3-14.8-5.3-4.3 0-7.9.7-10.8 2.2s-5.2 3.3-6.9 5.4c-1.7 2.2-2.9 4.5-3.6 6.9s-1.1 4.6-1.2 6.5h44.1c-1.3-7-3.6-12.2-6.8-15.7zm94.3-5.4c-4.3 0-8 1-10.9 3s-5.3 4.5-7.2 7.6c-1.8 3.1-3.2 6.6-3.9 10.3-.8 3.8-1.1 7.5-1.1 11.2 0 3.6.4 7.2 1.1 10.9.8 3.7 2 7 3.7 10 1.7 3 4 5.4 7 7.4 2.9 1.9 6.5 2.9 10.7 2.9 6.5 0 11.5-1.8 15-5.4 3.5-3.6 5.7-8.5 6.6-14.6h26.2c-1.8 13.1-6.9 23.1-15.3 30-8.4 6.9-19.2 10.3-32.3 10.3-7.4 0-14.2-1.2-20.3-3.7-6.2-2.5-11.4-6-15.8-10.4-4.3-4.5-7.7-9.8-10.1-16-2.4-6.2-3.6-13-3.6-20.3 0-7.6 1.1-14.7 3.3-21.3 2.2-6.6 5.5-12.2 9.8-17 4.3-4.8 9.6-8.5 15.9-11.2 6.2-2.7 13.4-4 21.4-4 5.9 0 11.5.8 16.9 2.3s10.3 3.9 14.5 7c4.3 3.1 7.7 7 10.4 11.7 2.7 4.7 4.2 10.2 4.6 16.5H1685c-1.8-11.5-8.5-17.2-20.1-17.2zm115.7-17.8v18.1h-19.9v48.9c0 4.6.8 7.6 2.3 9.2 1.5 1.5 4.6 2.3 9.2 2.3 1.5 0 3-.1 4.4-.2 1.4-.1 2.7-.3 4-.6v21c-2.3.4-4.8.6-7.6.8-2.8.1-5.5.2-8.2.2-4.2 0-8.2-.3-11.9-.9-3.8-.6-7.1-1.7-9.9-3.3-2.9-1.7-5.1-4-6.8-7.1s-2.5-7.1-2.5-12V55.8h-16.4V37.6h16.4V8h27.1v29.6h19.8z"/></svg>