<svg xmlns="http://www.w3.org/2000/svg" viewBox="0 0 93.7 93.2"><path d="M88.7 28.9c-2.3-5.4-5.6-10.3-9.7-14.4s-9-7.4-14.4-9.7C59 2.4 53 1.2 46.9 1.2S34.7 2.4 29.1 4.7c-5.4 2.3-10.3 5.6-14.4 9.7s-7.4 9-9.7 14.4c-2.4 5.6-3.6 11.6-3.6 17.7S2.6 58.6 5 64.2c2.3 5.4 5.6 10.3 9.7 14.4s9 7.4 14.4 9.7c5.6 2.4 11.6 3.6 17.7 3.6s12.1-1.2 17.7-3.6c5.4-2.3 10.3-5.6 14.4-9.7s7.4-9 9.7-14.4c2.4-5.6 3.6-11.6 3.6-17.7s-1.2-12-3.5-17.6zM75.6 75.4C67.9 83 57.7 87.3 46.8 87.3c-10.9 0-21.1-4.2-28.8-11.9-7.6-7.7-11.9-17.9-11.9-28.8 0-10.9 4.2-21.1 11.9-28.8 7.7-7.7 17.9-11.9 28.8-11.9 10.9 0 21.1 4.2 28.8 11.9s11.9 17.9 11.9 28.8c0 10.9-4.3 21.1-11.9 28.8z"/><path d="M80.5 47.8L46.9 36.6l27.8-13.8c.2-.1.3-.4.2-.6-.1-.2-.4-.3-.6-.2L45.9 36c-.1-5.6-1.8-10.3-4.8-13.5-2.8-2.9-6.7-4.6-10.9-4.6-8.2 0-16.7 6.2-16.7 16.7 0 9.8 2.5 12.7 4.5 14.9 1.5 1.6 2.5 2.8 2.5 6.4 0 5.3-2.6 11-2.6 11.1-.2.3-.1.8.1 1.1.2.3.6.5.9.5H36c.4 0 .7-.2.9-.5s.3-.7.1-1c-1-2.7-1.8-7.1-.3-8.1 1.3-.9 3-.9 4.5-.9 1.4 0 2.7 0 3.8-.7 1.4-.9 1.5-3.8 1.5-6.6 0-1.4-.1-2.7-.2-3.6h2.5c.4 0 .7-.2.9-.5s.2-.7.1-1l-3.4-8.3 16.1 5.3-2.6 8c-.6-.4-1.4-.2-2 .1l-.8.4c-2.3 1.1-4.8 2.3-5.7 3.8-1.3 2.1-.9 5.6-.6 8.9.3 2.8.5 5.4-.2 6.7-1.7 3-3.5 5.7-3.5 5.7-.1.1-.1.3-.1.4 0 .1.1.3.3.3l9.1 4.9.3.1.3-.1c.2-.1.3-.2.3-.4 0-.1.7-7.5 3.2-9.8.7-.6 1.5-1.2 2.4-1.9 2.5-1.9 5.4-4.1 6.6-7.6 2-5.8-.9-9.1-1.1-9.2-.3-1.3-.8-2.4-1.1-3-.2-.3-.5-.7-.9-.7-.3 0-.5.1-.7.3l-.1-.2c-.4-.6-.7-.8-1.1-.8-.3 0-.6.1-.8.3-.5-1.2-1.1-1.4-1.5-1.4l1.5-4.5 16.9 5.6h.1c.2 0 .4-.1.4-.3-.2-.2-.4-.4-.6-.5zm-41.9-9c-1.9-.2-3.5-1.5-4.1-2.1.7-.6 2.3-1.8 4.2-2.1-.8.4-1.3 1.2-1.3 2.1-.1.9.4 1.7 1.2 2.1zm2.7-3.8c1 .4 1.9 1 2.4 1.5v.4c-.5.4-1.4 1.1-2.4 1.5a2.413 2.413 0 0 0 0-3.4zM47 45h-2c-.3 0-.6.1-.8.4-.2.2-.3.6-.3.9 0 0 .3 2.1.3 4.4.1 3.9-.4 4.8-.5 4.9-.5.3-1.5.3-2.5.3-1.7 0-3.8 0-5.7 1.3-1.6 1-2.1 3.2-1.6 6.5.2 1 .4 2 .6 2.7H20.6c.8-2.2 2.2-6.3 2.2-10.4 0-4.5-1.6-6.2-3.1-7.9-1.9-2.1-4-4.5-4-13.5 0-5.3 2.5-8.7 4.5-10.6 2.7-2.4 6.3-3.8 9.9-3.8 3.6 0 6.9 1.4 9.3 3.9 2.5 2.6 3.9 6.5 4.2 11.2-1-.8-2.6-1.6-4.5-1.6-3.2 0-5.6 2.6-5.8 2.7-.2.2-.2.5 0 .6.1.1 2.6 2.7 5.8 2.7 2.1 0 3.8-1.1 4.8-1.9L47 45zm14.8 3.6s.3.1.6.8c.9 2.2 2.6 6.8.8 10.3-.1.3 0 .6.2.7.3.1.6 0 .7-.2 1.8-3.3.6-7.4-.3-10 0-.1.1-.4.2-.5.2.2.4.6.7 1.3v.2c0 .2.1.3.2.4.2.6.4 1.2.6 2 .4 1.8.6 4.5-.6 6.8-.1.3 0 .6.2.7l.2.1c.2 0 .4-.1.5-.3 1.8-3.4 1-7.6 0-10 0-.1 0-.3.1-.4.3.4.9 1.8 1.3 3.9.2 1.5.4 4.5-.9 6.9-.1.3 0 .6.2.7l.2.1c.2 0 .4-.1.5-.3.9-1.8 1.2-3.9 1.2-5.8.4 1.4.5 3.3-.3 5.8-1.1 3.2-3.8 5.2-6.2 7.1-.9.7-1.7 1.3-2.4 2-2.3 2.1-3.2 7.6-3.5 9.7l-7.9-4.3c.6-.9 1.9-3 3.3-5.3.9-1.6.7-4.4.4-7.3-.3-3.1-.6-6.4.5-8.2.8-1.3 3.8-2.7 5.2-3.4.3-.2.6-.3.8-.4.5-.3.9-.2 1-.1.1.1.1.2 0 .3-.1.2-.8.7-1.3 1.1-1 .8-2.1 1.6-2.5 2.5-.3.5-.6 1.4-.8 2.4-.2.8-.2 2 .2 2.9.4.7 1 1 1.8 1.1 1.8.1 3.1-.4 4.1-1.6 1.1-1.3 1.6-3.4 1.5-6.3-.1-2.1-.5-4-.6-4.6-.2-.3 0-.7.1-.8zm-.6 5.6c.1 1.8-.1 4.2-1.3 5.6-.7.9-1.8 1.3-3.2 1.2-.4 0-.7-.2-.9-.6-.6-1.1.1-3.4.6-4.3.3-.6 1.4-1.5 2.2-2.1l.1-.1-1.3 4.1.9.3 1.9-5.7c.1-.2.1-.4.2-.6l.4-1.3c.2.8.4 2.1.4 3.5zM40.4 14.1h1.2c.6 0 1.1-.1 1.4-.4.3-.3.5-.7.5-1.4 0-.6-.2-1.1-.5-1.4-.3-.3-.8-.4-1.3-.4h-2.4v5.7h1.2v-2.1zm0-2.6h1.1c.3 0 .5.1.6.2.1.1.2.3.2.6s-.1.5-.2.6c-.1.1-.4.2-.6.2h-1.1v-1.6z"/><path d="M42.3 77.5h-2.2v-2.1h-1.2V81h1.2v-2.5h2.2V81h1.2v-5.6h-1.2zM79.1 54.6c.2-.1.3-.2.4-.3.2-.2.3-.5.3-.8 0-.3-.1-.6-.3-.9-.3-.4-.8-.6-1.5-.6h-2.7v5.7h2.5c.3 0 .6 0 .8-.1.2-.1.5-.1.6-.3.2-.1.3-.3.4-.4.2-.3.3-.6.3-.9 0-.3-.1-.6-.2-.8-.1-.4-.3-.5-.6-.6zm-2.6-1.7h1.2c.3 0 .5 0 .7.1.2.1.3.3.3.5s-.1.4-.2.5c-.2.1-.4.1-.6.1h-1.4v-1.2zm1.9 3.6c-.1.1-.3.1-.6.1h-1.4v-1.5h1.4c.2 0 .4 0 .6.1.2.1.4.3.4.6 0 .4-.1.6-.4.7z"/><circle cx="73.3" cy="34.8" r="8.7"/></svg>