<?xml version="1.0" encoding="utf-8"?>
<!-- Generator: Adobe Illustrator 21.0.0, SVG Export Plug-In . SVG Version: 6.00 Build 0)  -->
<svg version="1.1" id="Layer_1" xmlns="http://www.w3.org/2000/svg" xmlns:xlink="http://www.w3.org/1999/xlink" x="0px" y="0px"
	 viewBox="0 0 14.6 13" style="enable-background:new 0 0 14.6 13;" xml:space="preserve">
<path d="M11.7,7.3l-1,1l1.1,1.1H9.4c-1.6,0-2.9-1.3-2.9-2.9l0,0l0,0c0-1.6,1.3-2.9,2.9-2.9h2.3l-1.1,1.1l1,1.2l2.8-2.9L11.6,0l-1,1
	l1.2,1.2H9.4c-1.5,0-2.8,0.8-3.6,2C5,3,3.7,2.2,2.2,2.2H0v1.5h2.2c1.6,0,2.9,1.3,2.9,2.9S3.8,9.4,2.2,9.4H0v1.5h2.2
	c1.5,0,2.8-0.8,3.6-2c0.8,1.2,2.1,2,3.6,2h2.3L10.7,12l1,1l2.9-2.9L11.7,7.3z"/>
</svg>
